<svg t="1680984283167" class="icon" viewBox="0 0 1024 1024" version="1.1" xmlns="http://www.w3.org/2000/svg" p-id="1508" width="200" height="200"><path d="M937.7 240.4c-18.3-22.8-46-36.2-75.5-36.2h-381c-17.4 0-31.7 14.3-31.7 31.7s14.3 31.7 31.7 31.7h381.1c9.8 0 19.2 4.5 25.5 12.5 6.3 8 8.5 18.3 5.8 29.9l-50.9 314c-3.1 15.2-16.5 25.5-31.7 25.5H404.8c-15.2 0-28.6-10.7-31.7-24.6l-75-429.7c-9.4-44.2-49.1-76.4-94.3-76.4H97c-17.4 0-31.7 14.7-31.7 32.2s14.3 31.7 31.7 31.7h106.8c15.2 0 28.6 10.7 31.7 24.6l75 429.7c9.4 44.2 49.1 76.4 94.3 76.4h406.1c45.1 0 84-30.8 94.7-77.3l50.9-314c6.2-29-0.5-58.5-18.8-81.7z" fill="#333333" p-id="1509"></path><path d="M791.6 841.2m-63.9 0a63.9 63.9 0 1 0 127.8 0 63.9 63.9 0 1 0-127.8 0Z" fill="#333333" p-id="1510"></path><path d="M429.3 841.2m-63.9 0a63.9 63.9 0 1 0 127.8 0 63.9 63.9 0 1 0-127.8 0Z" fill="#333333" p-id="1511"></path></svg>